<svg xmlns="http://www.w3.org/2000/svg" width="1280" height="640" viewBox="0 0 1280 640" role="img" aria-labelledby="title desc">
  <title id="title">PresentationAgent social preview</title>
  <desc id="desc">A local-first AI workspace for research-first presentation creation.</desc>
  <defs>
    <linearGradient id="bg" x1="0" y1="0" x2="1" y2="1">
      <stop offset="0" stop-color="#f8fafc"/>
      <stop offset="1" stop-color="#e0f2fe"/>
    </linearGradient>
    <filter id="shadow" x="-20%" y="-20%" width="140%" height="140%">
      <feDropShadow dx="0" dy="20" stdDeviation="22" flood-color="#0f172a" flood-opacity="0.18"/>
    </filter>
  </defs>
  <rect width="1280" height="640" fill="url(#bg)"/>
  <rect x="64" y="64" width="1152" height="512" rx="34" fill="#ffffff" filter="url(#shadow)"/>
  <text x="112" y="148" font-family="Inter, Arial, sans-serif" font-size="66" font-weight="800" fill="#111827">PresentationAgent</text>
  <text x="116" y="202" font-family="Inter, Arial, sans-serif" font-size="27" font-weight="600" fill="#475569">Research-first AI presentation workspace</text>
  <g transform="translate(112 265)">
    <rect width="212" height="154" rx="16" fill="#eff6ff" stroke="#93c5fd" stroke-width="3"/>
    <text x="24" y="52" font-family="Inter, Arial, sans-serif" font-size="25" font-weight="750" fill="#1d4ed8">Evidence</text>
    <rect x="24" y="78" width="140" height="15" rx="4" fill="#60a5fa"/>
    <rect x="24" y="106" width="164" height="13" rx="4" fill="#bfdbfe"/>
  </g>
  <path d="M354 342h88" stroke="#2563eb" stroke-width="8" stroke-linecap="round"/>
  <path d="M424 320l30 22-30 22" fill="none" stroke="#2563eb" stroke-width="8" stroke-linecap="round" stroke-linejoin="round"/>
  <g transform="translate(486 265)">
    <rect width="256" height="154" rx="16" fill="#f0fdf4" stroke="#86efac" stroke-width="3"/>
    <text x="24" y="52" font-family="Inter, Arial, sans-serif" font-size="25" font-weight="750" fill="#047857">WebDeck</text>
    <rect x="24" y="78" width="78" height="50" rx="7" fill="#22c55e"/>
    <rect x="116" y="78" width="48" height="50" rx="7" fill="#86efac"/>
    <rect x="178" y="78" width="48" height="50" rx="7" fill="#bbf7d0"/>
  </g>
  <path d="M772 342h88" stroke="#2563eb" stroke-width="8" stroke-linecap="round"/>
  <path d="M842 320l30 22-30 22" fill="none" stroke="#2563eb" stroke-width="8" stroke-linecap="round" stroke-linejoin="round"/>
  <g transform="translate(904 265)">
    <rect width="244" height="154" rx="16" fill="#fff7ed" stroke="#fdba74" stroke-width="3"/>
    <text x="24" y="52" font-family="Inter, Arial, sans-serif" font-size="25" font-weight="750" fill="#c2410c">Deck Assets</text>
    <rect x="24" y="78" width="78" height="50" rx="7" fill="#f97316"/>
    <path d="M126 124 C142 82, 164 102, 178 74 S214 86, 222 66" fill="none" stroke="#2563eb" stroke-width="7" stroke-linecap="round"/>
  </g>
  <text x="112" y="514" font-family="Inter, Arial, sans-serif" font-size="24" font-weight="650" fill="#334155">Briefing, evidence planning, WebDeck orchestration, draw.io editing, gallery, and exports.</text>
</svg>
